<?xml version="1.0" encoding="UTF-8"?>
<svg id="Ebene_1" data-name="Ebene 1" xmlns="http://www.w3.org/2000/svg" viewBox="0 0 1686.35367 1054.82033">
  <defs>
    <style>
      .cls-1 {
        fill: #ed1e79;
        stroke-width: 0px;
      }
    </style>
  </defs>
  <path class="cls-1" d="m1683.33974,207.31251c-26.6499,116.37988-194.08984,158.20883-299.1001,175.72885-54.02002,8.08984-116.54004,16.82983-170.77002,24.57007-154.17604,21.81629-311.74262,43.36384-466.49596,63.74811-5.57776.73471-10.04941,4.9876-11.02317,10.52863-36.0914,205.37182-134.29429,407.04032-317.00089,518.33312-26.57959,15.98999-54.68994,30.15991-84.25977,40.18994l-3.31982,1.07007-1.78027.55005-2.31006.66992-39.44855,11.58257c-9.30549,2.7322-18.18633-5.38861-16.28502-14.89872,35.12754-175.70292,73.61402-364.37886,110.98833-541.12918,1.81791-8.59724-5.30308-16.44989-14.03634-15.47649-117.3845,13.08349-235.85641,29.05511-354.2448,41.42848-16.55931,1.7307-19.92297-22.74768-3.51163-25.55376,104.07979-17.79604,208.2255-38.14702,311.13811-55.14284,20.80295-3.45486,92.17397-15.13943,129.03492-21.20143,8.66226-1.42456,16.19628,6.04285,14.81875,14.71272-24.84623,156.37661-70.21982,327.7589-97.10348,487.08406-1.09751,6.50437,6.10468,11.13983,11.60684,7.50148,10.62594-7.0265,20.96581-14.49077,31.02286-22.25687,60.9502-47.57996,110.31006-109.17004,147.41992-176.84998,51.58008-94.53003,80.04004-200.1001,93.55029-306.67993l3.10487-24.48231c.72969-5.75372,5.20381-10.31386,10.94369-11.14543,219.43354-31.79069,442.1844-62.56733,662.04129-91.38226,10.51001-1.42017,30.76001-3.90015,41.44995-5.57007,62.94995-10.56006,127.41016-13.21884,180.14014-49.18881,24.27002-17.43018,53.94995-43.78003,46.72998-75.14014-.55005-2.1499-1.83008-4.47998-3.46997-6.81006-5.1001-7.35986-13.07007-14.32983-20.87012-20.28979-40.12988-29.27002-90.23999-46.27002-139.13989-54.96997-22.51001-3.77002-45.05005-5.55005-67.69995-4.22021-8.5.63013-17.41016,1.9502-25.97998,3.19019-87.30324,13.92613-380.78614,59.21435-664.37979,106.87283-15.92088,2.67554-21.3194-20.42946-5.85759-25.0733,218.40076-65.59512,429.20402-106.4252,592.91732-148.83956,30.47445-7.89523,61.80005-13.1001,93.16992-17.19019,75.08008-7.27979,158.63013,11.08008,225.97998,44.37012,35.63013,18.20996,72.01001,42.19995,92.19995,78.94995,13.25,24.71021,15.72021,55.19995,9.83008,82.41016Z"/>
  <g>
    <g>
      <path class="cls-1" d="m903.70433,974.48482c.49981-2.89244-2.85302-4.86203-5.13797-3.01947-52.95545,42.70268-83.72224,58.56794-124.0061,58.56794-62.54545,0-97.60203-46.73897-97.60203-105.16222,0-65.98344,39.18066-110.65849,92.102-134.71501,48.12319-21.68899,111.61865-25.33156,171.373-25.42849,1.49179-.00242,2.77968-1.02232,3.1276-2.47297,3.22307-13.43873,6.2673-30.6011,6.2673-42.89403,0-37.80284-28.86858-50.86118-52.9251-50.86118-37.16658,0-68.76731,27.83602-81.30144,60.03586-1.14065,2.93029-4.35649,4.47043-7.35424,3.52113l-70.39499-22.29223c-3.49469-1.10668-5.1908-5.08508-3.54262-8.35939,32.55557-64.67572,84.93331-98.88881,171.52943-98.88881,85.22978,0,137.46691,42.61301,137.46691,112.72053,0,32.30469-4.81206,55.67323-15.80836,113.41039l-22.68433,115.47055c-2.61047,11.75247-8.32141,39.62977-12.42186,72.43775-.37313,2.98545-2.91112,5.22997-5.9198,5.22997h-83.85334c-3.70219,0-6.5111-3.33591-5.8807-6.98404l6.96665-40.31626Zm28.15496-148.82224c.4048-2.00708-1.13579-3.89041-3.18321-3.87267-77.0997.66814-155.49177,21.00533-155.49177,84.52466,0,23.36855,17.1843,45.36303,48.11304,45.36303,29.12962,0,54.91803-16.02321,93.16069-46.75257,1.08807-.8743,1.84054-2.10978,2.1165-3.47805l15.28474-75.7844Z"/>
      <path class="cls-1" d="m1161.63729,610.7641h84.75716c4.81184,0,8.43009,4.38757,7.51378,9.11136l-76.76038,395.71335c-.69795,3.59805-3.84865,6.19631-7.51378,6.19631h-84.75716c-4.81184,0-8.43009-4.38757-7.51378-9.11136l76.76038-395.71335c.69795-3.59805,3.84865-6.19631,7.51378-6.19631Z"/>
      <path class="cls-1" d="m1355.4654,610.7641h84.8089c4.79473,0,8.40887,4.35815,7.52167,9.07008l-7.12992,37.86706c-.59528,3.16154,3.31958,5.16345,5.50851,2.80585,32.03174-34.49983,73.41557-57.99115,123.60805-57.99115,2.73675,0,5.33894.1342,7.74702.40293,4.43042.49442,7.48465,4.67752,6.64272,9.05521l-14.35482,74.63941c-.77283,4.0184-4.56523,6.73908-8.61433,6.14787-6.10258-.89105-13.52725-1.58141-27.16138-1.58141-35.89339,0-77.13109,19.35486-109.23794,54.77675-.93389,1.03031-1.56153,2.30557-1.82833,3.67031l-51.9961,265.97276c-.70239,3.59291-3.85072,6.18535-7.51164,6.18535h-84.76277c-4.81184,0-8.43009-4.38757-7.51378-9.11136l76.76038-395.71335c.69795-3.59805,3.84865-6.19631,7.51378-6.19631Z"/>
    </g>
    <circle class="cls-1" cx="1221.55391" cy="507.03105" r="60.44762"/>
  </g>
</svg>